<svg width="476" height="761" viewBox="0 0 476 761" fill="none" xmlns="http://www.w3.org/2000/svg">
<g opacity="0.4" filter="url(#filter0_f_15_356)">
<path d="M273.539 274.472L475.232 328.515C480.361 329.889 485.133 332.355 489.22 335.746C493.307 339.137 496.612 343.371 498.909 348.159C501.206 352.946 502.441 358.174 502.528 363.484C502.616 368.793 501.554 374.059 499.416 378.92L438.239 517.942C432.925 530.024 423.46 539.804 411.559 545.511C399.657 551.219 386.105 552.477 373.357 549.057L251.477 516.399C238.731 512.983 227.628 505.117 220.178 494.225C212.729 483.333 209.424 470.134 210.862 457.016L227.392 306.031C227.971 300.753 229.685 295.662 232.415 291.107C235.146 286.553 238.829 282.643 243.212 279.645C247.595 276.647 252.575 274.633 257.81 273.74C263.044 272.847 268.41 273.097 273.539 274.472Z" stroke="white" stroke-width="20" stroke-linecap="round" stroke-linejoin="round"/>
<path d="M306.729 340.558L330.56 251.62C334.352 237.468 343.611 225.401 356.3 218.075C368.989 210.749 384.068 208.764 398.221 212.556C412.373 216.348 424.44 225.607 431.766 238.296C439.092 250.985 441.077 266.064 437.285 280.217L413.454 369.154" stroke="white" stroke-width="20" stroke-linecap="round" stroke-linejoin="round"/>
</g>
<defs>
<filter id="filter0_f_15_356" x="0.532959" y="0.673584" width="712" height="760.27" filterUnits="userSpaceOnUse" color-interpolation-filters="sRGB">
<feFlood flood-opacity="0" result="BackgroundImageFix"/>
<feBlend mode="normal" in="SourceGraphic" in2="BackgroundImageFix" result="shape"/>
<feGaussianBlur stdDeviation="100" result="effect1_foregroundBlur_15_356"/>
</filter>
</defs>
</svg>
