<svg width="359" height="394" viewBox="0 0 359 394" fill="none" xmlns="http://www.w3.org/2000/svg">
<g opacity="0.8">
<path d="M97.5394 98.4715L299.232 152.515C304.361 153.889 309.133 156.355 313.22 159.746C317.307 163.137 320.612 167.371 322.909 172.159C325.206 176.946 326.441 182.174 326.528 187.484C326.616 192.793 325.554 198.059 323.416 202.92L262.239 341.942C256.925 354.024 247.46 363.804 235.559 369.511C223.657 375.219 210.105 376.477 197.357 373.057L75.4769 340.399C62.7305 336.983 51.628 329.117 44.1783 318.225C36.7286 307.333 33.4238 294.134 34.8621 281.016L51.3924 130.031C51.9712 124.753 53.6846 119.662 56.4152 115.107C59.1457 110.553 62.8289 106.643 67.2122 103.645C71.5954 100.647 76.5751 98.6328 81.8097 97.7399C87.0444 96.8469 92.4102 97.0965 97.5394 98.4715Z" stroke="white" stroke-width="20" stroke-linecap="round" stroke-linejoin="round"/>
<path d="M130.729 164.558L154.56 75.6202C158.352 61.4676 167.611 49.4011 180.3 42.0752C192.989 34.7493 208.068 32.7641 222.221 36.5562C236.373 40.3484 248.44 49.6074 255.766 62.2962C263.092 74.9851 265.077 90.0645 261.285 104.217L237.454 193.154" stroke="white" stroke-width="20" stroke-linecap="round" stroke-linejoin="round"/>
</g>
</svg>
