<svg width="101" height="100" viewBox="0 0 101 100" fill="none" xmlns="http://www.w3.org/2000/svg">
<g filter="url(#filter0_bii_15_26)">
<rect x="0.166748" width="100" height="100" rx="15" fill="white" fill-opacity="0.095"/>
<path d="M45.793 35.4167L49.9597 31.25M41.6264 58.3333L58.293 41.6667M49.9597 68.75L54.1264 64.5833M59.3347 64.5833C60.7161 64.5833 62.0408 64.0346 63.0176 63.0578C63.9943 62.0811 64.543 60.7563 64.543 59.375C64.543 57.9937 63.9943 56.6689 63.0176 55.6922C62.0408 54.7154 60.7161 54.1667 59.3347 54.1667C57.9534 54.1667 56.6286 54.7154 55.6519 55.6922C54.6751 56.6689 54.1264 57.9937 54.1264 59.375C54.1264 60.7563 54.6751 62.0811 55.6519 63.0578C56.6286 64.0346 57.9534 64.5833 59.3347 64.5833ZM40.5847 45.8333C41.9661 45.8333 43.2908 45.2846 44.2676 44.3078C45.2443 43.3311 45.793 42.0063 45.793 40.625C45.793 39.2437 45.2443 37.9189 44.2676 36.9422C43.2908 35.9654 41.9661 35.4167 40.5847 35.4167C39.2034 35.4167 37.8786 35.9654 36.9019 36.9422C35.9251 37.9189 35.3764 39.2437 35.3764 40.625C35.3764 42.0063 35.9251 43.3311 36.9019 44.3078C37.8786 45.2846 39.2034 45.8333 40.5847 45.8333ZM36.418 68.75C37.7994 68.75 39.1241 68.2013 40.1009 67.2245C41.0776 66.2478 41.6264 64.923 41.6264 63.5417C41.6264 62.1603 41.0776 60.8356 40.1009 59.8588C39.1241 58.8821 37.7994 58.3333 36.418 58.3333C35.0367 58.3333 33.712 58.8821 32.7352 59.8588C31.7585 60.8356 31.2097 62.1603 31.2097 63.5417C31.2097 64.923 31.7585 66.2478 32.7352 67.2245C33.712 68.2013 35.0367 68.75 36.418 68.75ZM63.5014 41.6667C64.8827 41.6667 66.2075 41.1179 67.1842 40.1412C68.161 39.1644 68.7097 37.8397 68.7097 36.4583C68.7097 35.077 68.161 33.7522 67.1842 32.7755C66.2075 31.7987 64.8827 31.25 63.5014 31.25C62.12 31.25 60.7953 31.7987 59.8185 32.7755C58.8418 33.7522 58.293 35.077 58.293 36.4583C58.293 37.8397 58.8418 39.1644 59.8185 40.1412C60.7953 41.1179 62.12 41.6667 63.5014 41.6667Z" stroke="white" stroke-width="3.33333" stroke-linecap="round" stroke-linejoin="round"/>
</g>
<defs>
<filter id="filter0_bii_15_26" x="-74.2626" y="-74.4293" width="248.859" height="248.859" filterUnits="userSpaceOnUse" color-interpolation-filters="sRGB">
<feFlood flood-opacity="0" result="BackgroundImageFix"/>
<feGaussianBlur in="BackgroundImageFix" stdDeviation="37.2147"/>
<feComposite in2="SourceAlpha" operator="in" result="effect1_backgroundBlur_15_26"/>
<feBlend mode="normal" in="SourceGraphic" in2="effect1_backgroundBlur_15_26" result="shape"/>
<feColorMatrix in="SourceAlpha" type="matrix" values="0 0 0 0 0 0 0 0 0 0 0 0 0 0 0 0 0 0 127 0" result="hardAlpha"/>
<feOffset dx="-3.01333" dy="3.01333"/>
<feGaussianBlur stdDeviation="1.50667"/>
<feComposite in2="hardAlpha" operator="arithmetic" k2="-1" k3="1"/>
<feColorMatrix type="matrix" values="0 0 0 0 1 0 0 0 0 1 0 0 0 0 1 0 0 0 0.39 0"/>
<feBlend mode="normal" in2="shape" result="effect2_innerShadow_15_26"/>
<feColorMatrix in="SourceAlpha" type="matrix" values="0 0 0 0 0 0 0 0 0 0 0 0 0 0 0 0 0 0 127 0" result="hardAlpha"/>
<feOffset dx="2.01" dy="-2.01"/>
<feGaussianBlur stdDeviation="10"/>
<feComposite in2="hardAlpha" operator="arithmetic" k2="-1" k3="1"/>
<feColorMatrix type="matrix" values="0 0 0 0 0.84 0 0 0 0 0.84 0 0 0 0 0.84 0 0 0 0.17 0"/>
<feBlend mode="normal" in2="effect2_innerShadow_15_26" result="effect3_innerShadow_15_26"/>
</filter>
</defs>
</svg>
