<svg width="101" height="100" viewBox="0 0 101 100" fill="none" xmlns="http://www.w3.org/2000/svg">
<g filter="url(#filter0_bii_15_33)">
<rect x="0.5" width="100" height="100" rx="15" fill="white" fill-opacity="0.095"/>
<path fill-rule="evenodd" clip-rule="evenodd" d="M67.2122 26.5625C61.5028 26.5625 56.009 28.7431 51.8536 32.6585L49.1359 35.2193C48.0133 36.277 46.9417 37.3859 45.9243 38.5419H35.4296C34.1489 38.5419 32.9622 39.2138 32.3033 40.312L26.6602 49.7172C26.4002 50.1505 26.3658 50.6828 26.5679 51.146C26.77 51.6091 27.1836 51.946 27.6781 52.0501L37.2034 54.0554C37.2839 54.1579 37.373 54.2555 37.4706 54.3471L41.6289 58.2494L45.5288 62.4052C45.6202 62.5026 45.7176 62.5916 45.8199 62.672L47.8252 72.1971C47.9293 72.6916 48.2661 73.1053 48.7293 73.3074C49.1924 73.5094 49.7247 73.4751 50.1581 73.2151L59.5633 67.572C60.6614 66.9131 61.3333 65.7263 61.3333 64.4457V53.9517C62.4902 52.9335 63.5997 51.8611 64.6581 50.7376L67.2166 48.0217C71.1325 43.8649 73.3126 38.3691 73.3109 32.6583L73.3102 30.2073C73.3096 28.1941 71.6775 26.5625 69.6644 26.5625H67.2122ZM58.2083 56.4843C57.5155 57.0006 56.809 57.4989 56.0892 57.9787L49.0178 62.693L50.4313 69.4068L57.9555 64.8923C58.1123 64.7982 58.2083 64.6286 58.2083 64.4457V56.4843ZM37.1832 50.8576L41.8986 43.7845C42.3781 43.0653 42.876 42.3592 43.3919 41.6669H35.4296C35.2466 41.6669 35.0771 41.7629 34.983 41.9198L30.4684 49.444L37.1832 50.8576ZM53.9967 34.9329C57.5722 31.5638 62.2995 29.6875 67.2122 29.6875H69.6644C69.952 29.6875 70.1851 29.9206 70.1852 30.2082L70.1859 32.6592C70.1874 37.5732 68.3115 42.3021 64.942 45.8789L62.3835 48.5948C59.9734 51.1531 57.2802 53.4289 54.3558 55.3785L47.5058 59.9452L43.8737 56.0748C43.8511 56.0507 43.8277 56.0273 43.8036 56.0046L39.9306 52.3701L44.4988 45.5179C46.4475 42.5949 48.7221 39.9029 51.2789 37.4937L53.9967 34.9329ZM61.334 41.667C61.334 43.3929 59.9349 44.792 58.209 44.792C56.4831 44.792 55.084 43.3929 55.084 41.667C55.084 39.9411 56.4831 38.542 58.209 38.542C59.9349 38.542 61.334 39.9411 61.334 41.667ZM38.4161 68.7503C40.2908 66.8756 40.2908 63.3333 38.4161 61.4586C36.5415 59.584 32.9991 59.5839 31.1244 61.4586C28.6061 63.9769 28.114 69.5862 28.0206 71.3403C28.005 71.6341 28.2406 71.8697 28.5343 71.854C30.2886 71.7605 35.8982 71.2682 38.4161 68.7503Z" fill="white"/>
</g>
<defs>
<filter id="filter0_bii_15_33" x="-73.9293" y="-74.4293" width="248.859" height="248.859" filterUnits="userSpaceOnUse" color-interpolation-filters="sRGB">
<feFlood flood-opacity="0" result="BackgroundImageFix"/>
<feGaussianBlur in="BackgroundImageFix" stdDeviation="37.2147"/>
<feComposite in2="SourceAlpha" operator="in" result="effect1_backgroundBlur_15_33"/>
<feBlend mode="normal" in="SourceGraphic" in2="effect1_backgroundBlur_15_33" result="shape"/>
<feColorMatrix in="SourceAlpha" type="matrix" values="0 0 0 0 0 0 0 0 0 0 0 0 0 0 0 0 0 0 127 0" result="hardAlpha"/>
<feOffset dx="-3.01333" dy="3.01333"/>
<feGaussianBlur stdDeviation="1.50667"/>
<feComposite in2="hardAlpha" operator="arithmetic" k2="-1" k3="1"/>
<feColorMatrix type="matrix" values="0 0 0 0 1 0 0 0 0 1 0 0 0 0 1 0 0 0 0.39 0"/>
<feBlend mode="normal" in2="shape" result="effect2_innerShadow_15_33"/>
<feColorMatrix in="SourceAlpha" type="matrix" values="0 0 0 0 0 0 0 0 0 0 0 0 0 0 0 0 0 0 127 0" result="hardAlpha"/>
<feOffset dx="2.01" dy="-2.01"/>
<feGaussianBlur stdDeviation="10"/>
<feComposite in2="hardAlpha" operator="arithmetic" k2="-1" k3="1"/>
<feColorMatrix type="matrix" values="0 0 0 0 0.84 0 0 0 0 0.84 0 0 0 0 0.84 0 0 0 0.17 0"/>
<feBlend mode="normal" in2="effect2_innerShadow_15_33" result="effect3_innerShadow_15_33"/>
</filter>
</defs>
</svg>
