<svg width="101" height="100" viewBox="0 0 101 100" fill="none" xmlns="http://www.w3.org/2000/svg">
<g filter="url(#filter0_bii_15_44)">
<rect x="0.833496" width="100" height="100" rx="15" fill="white" fill-opacity="0.095"/>
<path d="M67.7118 58.3336C66.4186 58.3403 65.1594 58.7479 64.1076 59.5003L59.0034 56.4795C59.2442 55.7319 59.3707 54.9523 59.3784 54.167C59.3724 52.3241 58.7558 50.5353 57.6249 49.0802C56.494 47.6252 54.9127 46.586 53.1284 46.1253V41.292C54.5184 40.8005 55.69 39.8335 56.436 38.5618C57.182 37.2901 57.4544 35.7956 57.2051 34.3425C56.9558 32.8894 56.2008 31.5712 55.0735 30.6209C53.9463 29.6706 52.5194 29.1494 51.0451 29.1494C49.5707 29.1494 48.1439 29.6706 47.0166 30.6209C45.8894 31.5712 45.1344 32.8894 44.8851 34.3425C44.6358 35.7956 44.9082 37.2901 45.6542 38.5618C46.4002 39.8335 47.5717 40.8005 48.9618 41.292V46.1253C47.1774 46.586 45.5961 47.6252 44.4653 49.0802C43.3344 50.5353 42.7177 52.3241 42.7118 54.167C42.7195 54.9523 42.8459 55.7319 43.0868 56.4795L37.9826 59.5003C36.9308 58.7479 35.6716 58.3403 34.3784 58.3336C33.1423 58.3336 31.9339 58.7002 30.9061 59.3869C29.8783 60.0737 29.0772 61.0498 28.6042 62.1919C28.1311 63.3339 28.0074 64.5906 28.2485 65.803C28.4897 67.0153 29.0849 68.129 29.959 69.0031C30.8331 69.8771 31.9467 70.4724 33.1591 70.7135C34.3715 70.9547 35.6282 70.8309 36.7702 70.3579C37.9122 69.8848 38.8883 69.0838 39.5751 68.0559C40.2619 67.0281 40.6284 65.8198 40.6284 64.5836C40.6207 64.0193 40.5366 63.4587 40.3784 62.917L45.1701 60.0628C46.7314 61.6149 48.8435 62.4861 51.0451 62.4861C53.2466 62.4861 55.3587 61.6149 56.9201 60.0628L61.7118 62.917C61.3627 64.1786 61.4186 65.5181 61.8716 66.7463C62.3245 67.9745 63.1517 69.0295 64.2364 69.7623C65.3211 70.4952 66.6086 70.869 67.9171 70.8309C69.2256 70.7929 70.4892 70.3449 71.5294 69.5503C72.5697 68.7556 73.3342 67.6544 73.7151 66.4019C74.0959 65.1495 74.0739 63.8091 73.6521 62.5698C73.2303 61.3305 72.4301 60.255 71.3642 59.4949C70.2984 58.7349 69.0208 58.3287 67.7118 58.3336ZM34.3784 66.667C33.9664 66.667 33.5636 66.5448 33.221 66.3159C32.8784 66.0869 32.6114 65.7616 32.4537 65.3809C32.296 65.0002 32.2547 64.5813 32.3351 64.1772C32.4155 63.7731 32.6139 63.4019 32.9053 63.1105C33.1966 62.8191 33.5679 62.6207 33.972 62.5403C34.3761 62.4599 34.795 62.5012 35.1757 62.6589C35.5564 62.8166 35.8817 63.0836 36.1106 63.4262C36.3396 63.7688 36.4618 64.1716 36.4618 64.5836C36.4618 65.1362 36.2423 65.6661 35.8516 66.0568C35.4609 66.4475 34.931 66.667 34.3784 66.667ZM51.0451 33.3336C51.4571 33.3336 51.8599 33.4558 52.2025 33.6847C52.5451 33.9137 52.8122 34.239 52.9698 34.6197C53.1275 35.0004 53.1688 35.4193 53.0884 35.8234C53.008 36.2275 52.8096 36.5987 52.5182 36.8901C52.2269 37.1815 51.8557 37.3799 51.4515 37.4603C51.0474 37.5407 50.6285 37.4994 50.2478 37.3417C49.8671 37.184 49.5418 36.917 49.3129 36.5744C49.0839 36.2318 48.9618 35.829 48.9618 35.417C48.9618 34.8644 49.1812 34.3345 49.5719 33.9438C49.9626 33.5531 50.4926 33.3336 51.0451 33.3336ZM51.0451 58.3336C50.221 58.3336 49.4154 58.0893 48.7302 57.6314C48.045 57.1736 47.511 56.5228 47.1956 55.7615C46.8802 55.0001 46.7977 54.1623 46.9585 53.3541C47.1193 52.5458 47.5161 51.8034 48.0988 51.2207C48.6815 50.638 49.424 50.2411 50.2322 50.0804C51.0405 49.9196 51.8782 50.0021 52.6396 50.3175C53.401 50.6328 54.0517 51.1669 54.5095 51.8521C54.9674 52.5373 55.2118 53.3429 55.2118 54.167C55.2118 55.272 54.7728 56.3318 53.9914 57.1132C53.21 57.8946 52.1502 58.3336 51.0451 58.3336ZM67.7118 66.667C67.2997 66.667 66.8969 66.5448 66.5543 66.3159C66.2117 66.0869 65.9447 65.7616 65.787 65.3809C65.6293 65.0002 65.5881 64.5813 65.6684 64.1772C65.7488 63.7731 65.9473 63.4019 66.2386 63.1105C66.53 62.8191 66.9012 62.6207 67.3053 62.5403C67.7094 62.4599 68.1283 62.5012 68.509 62.6589C68.8897 62.8166 69.2151 63.0836 69.444 63.4262C69.6729 63.7688 69.7951 64.1716 69.7951 64.5836C69.7951 65.1362 69.5756 65.6661 69.1849 66.0568C68.7942 66.4475 68.2643 66.667 67.7118 66.667Z" fill="white"/>
</g>
<defs>
<filter id="filter0_bii_15_44" x="-73.5958" y="-74.4293" width="248.859" height="248.859" filterUnits="userSpaceOnUse" color-interpolation-filters="sRGB">
<feFlood flood-opacity="0" result="BackgroundImageFix"/>
<feGaussianBlur in="BackgroundImageFix" stdDeviation="37.2147"/>
<feComposite in2="SourceAlpha" operator="in" result="effect1_backgroundBlur_15_44"/>
<feBlend mode="normal" in="SourceGraphic" in2="effect1_backgroundBlur_15_44" result="shape"/>
<feColorMatrix in="SourceAlpha" type="matrix" values="0 0 0 0 0 0 0 0 0 0 0 0 0 0 0 0 0 0 127 0" result="hardAlpha"/>
<feOffset dx="-3.01333" dy="3.01333"/>
<feGaussianBlur stdDeviation="1.50667"/>
<feComposite in2="hardAlpha" operator="arithmetic" k2="-1" k3="1"/>
<feColorMatrix type="matrix" values="0 0 0 0 1 0 0 0 0 1 0 0 0 0 1 0 0 0 0.39 0"/>
<feBlend mode="normal" in2="shape" result="effect2_innerShadow_15_44"/>
<feColorMatrix in="SourceAlpha" type="matrix" values="0 0 0 0 0 0 0 0 0 0 0 0 0 0 0 0 0 0 127 0" result="hardAlpha"/>
<feOffset dx="2.01" dy="-2.01"/>
<feGaussianBlur stdDeviation="10"/>
<feComposite in2="hardAlpha" operator="arithmetic" k2="-1" k3="1"/>
<feColorMatrix type="matrix" values="0 0 0 0 0.84 0 0 0 0 0.84 0 0 0 0 0.84 0 0 0 0.17 0"/>
<feBlend mode="normal" in2="effect2_innerShadow_15_44" result="effect3_innerShadow_15_44"/>
</filter>
</defs>
</svg>
