<svg width="40" height="40" viewBox="0 0 40 40" fill="none" xmlns="http://www.w3.org/2000/svg">
<circle cx="20" cy="20" r="20" fill="white"/>
<path d="M23.3327 24.2919C23.3327 25.0419 22.9921 25.563 22.311 25.8552C21.6299 26.1475 21.026 26.0291 20.4994 25.5002L16.166 21.1669C15.9993 21.0002 15.8744 20.8197 15.791 20.6252C15.7077 20.4308 15.666 20.2225 15.666 20.0002C15.666 19.778 15.7077 19.5697 15.791 19.3752C15.8743 19.1808 15.9993 19.0002 16.166 18.8336L20.4993 14.5002C21.0271 13.9725 21.6316 13.8547 22.3127 14.1469C22.9938 14.4391 23.3338 14.9597 23.3327 15.7086L23.3327 24.2919Z" fill="#9B5FFF"/>
</svg>
