<svg width="51" height="50" viewBox="0 0 51 50" fill="none" xmlns="http://www.w3.org/2000/svg">
<path fill-rule="evenodd" clip-rule="evenodd" d="M30.9034 6.0352C29.3955 4.75021 27.4793 4.04443 25.4982 4.04443C23.5171 4.04443 21.6008 4.75021 20.093 6.0352L19.3096 6.70187C18.6425 7.27095 17.8128 7.61506 16.9388 7.6852L15.9117 7.76853C13.9366 7.9257 12.0822 8.78144 10.681 10.1822C9.27982 11.583 8.42358 13.4373 8.26587 15.4123L8.18462 16.4394C8.11507 17.3132 7.7717 18.1428 7.20337 18.8102L6.53462 19.5935C5.24908 21.1015 4.54297 23.0182 4.54297 24.9998C4.54297 26.9813 5.24908 28.8981 6.53462 30.406L7.20129 31.1894C7.77037 31.8565 8.11448 32.6861 8.18462 33.5602L8.26796 34.5873C8.42513 36.5623 9.28086 38.4168 10.6817 39.818C12.0825 41.2192 13.9367 42.0754 15.9117 42.2331L16.9388 42.3144C17.8126 42.3839 18.6422 42.7273 19.3096 43.2956L20.093 43.9623C21.6009 45.2478 23.5176 45.9539 25.4992 45.9539C27.4808 45.9539 29.3975 45.2478 30.9055 43.9623L31.6888 43.2956C32.3562 42.7273 33.1858 42.3839 34.0596 42.3144L35.0867 42.231C37.0618 42.0739 38.9162 41.2181 40.3174 39.8173C41.7186 38.4165 42.5748 36.5623 42.7325 34.5873L42.8117 33.5602C42.8818 32.6861 43.226 31.8565 43.795 31.1894L44.4617 30.4039C45.7467 28.8961 46.4525 26.9798 46.4525 24.9987C46.4525 23.0176 45.7467 21.1014 44.4617 19.5935L43.795 18.8102C43.226 18.1431 42.8818 17.3134 42.8117 16.4394L42.7305 15.4123C42.5733 13.4372 41.7175 11.5828 40.3167 10.1816C38.9159 8.7804 37.0617 7.92416 35.0867 7.76645L34.0596 7.6852C33.1858 7.61565 32.3562 7.27228 31.6888 6.70395L30.9034 6.0352ZM22.7971 9.20812C23.551 8.5659 24.5089 8.21318 25.4992 8.21318C26.4895 8.21318 27.4474 8.5659 28.2013 9.20812L28.9867 9.87687C30.3212 11.0143 31.9805 11.7018 33.7284 11.8414L34.7555 11.9248C35.7425 12.0038 36.669 12.4317 37.3692 13.1319C38.0693 13.832 38.4973 14.7586 38.5763 15.7456L38.6596 16.7727C38.7993 18.5206 39.4868 20.1799 40.6242 21.5144L41.2909 22.2998C41.9331 23.0536 42.2858 24.0116 42.2858 25.0019C42.2858 25.9922 41.9331 26.9501 41.2909 27.7039L40.6242 28.4894C39.4868 29.8239 38.7993 31.4832 38.6596 33.231L38.5763 34.2581C38.4973 35.2451 38.0693 36.1717 37.3692 36.8718C36.669 37.572 35.7425 37.9999 34.7555 38.0789L33.7284 38.1623C31.9805 38.302 30.3212 38.9895 28.9867 40.1269L28.2013 40.7935C27.4474 41.4357 26.4895 41.7885 25.4992 41.7885C24.5089 41.7885 23.551 41.4357 22.7971 40.7935L22.0117 40.1269C20.6772 38.9895 19.0179 38.302 17.27 38.1623L16.243 38.0789C15.2556 38.0004 14.3285 37.5727 13.6279 36.8725C12.9274 36.1723 12.4991 35.2454 12.42 34.2581L12.3367 33.231C12.1976 31.4834 11.5109 29.8241 10.3742 28.4894L9.70754 27.7039C9.06532 26.9501 8.7126 25.9922 8.7126 25.0019C8.7126 24.0116 9.06532 23.0536 9.70754 22.2998L10.3742 21.5144C11.5116 20.1799 12.1991 18.5206 12.3388 16.7727L12.4221 15.7456C12.5007 14.7582 12.9284 13.8312 13.6286 13.1306C14.3288 12.43 15.2556 12.0018 16.243 11.9227L17.27 11.8414C19.0179 11.7018 20.6772 11.0143 22.0117 9.87687L22.7971 9.20812ZM33.2221 20.2248C33.4211 20.0326 33.5798 19.8027 33.689 19.5485C33.7982 19.2944 33.8557 19.021 33.8581 18.7444C33.8605 18.4677 33.8078 18.1934 33.703 17.9374C33.5982 17.6813 33.4436 17.4487 33.2479 17.2531C33.0523 17.0575 32.8197 16.9028 32.5637 16.7981C32.3077 16.6933 32.0333 16.6406 31.7567 16.643C31.4801 16.6454 31.2067 16.7029 30.9525 16.8121C30.6984 16.9213 30.4685 17.08 30.2763 17.2789L17.7763 29.7789C17.5773 29.9711 17.4186 30.201 17.3094 30.4552C17.2002 30.7094 17.1428 30.9827 17.1404 31.2594C17.1379 31.536 17.1907 31.8103 17.2954 32.0664C17.4002 32.3224 17.5549 32.555 17.7505 32.7506C17.9461 32.9462 18.1787 33.1009 18.4347 33.2057C18.6908 33.3104 18.9651 33.3631 19.2417 33.3607C19.5183 33.3583 19.7917 33.3008 20.0459 33.1917C20.3001 33.0825 20.5299 32.9238 20.7221 32.7248L33.2221 20.2248ZM23.4159 19.7914C23.4159 20.6203 23.0866 21.4151 22.5006 22.0012C21.9145 22.5872 21.1197 22.9164 20.2909 22.9164C19.4621 22.9164 18.6672 22.5872 18.0812 22.0012C17.4951 21.4151 17.1659 20.6203 17.1659 19.7914C17.1659 18.9626 17.4951 18.1678 18.0812 17.5817C18.6672 16.9957 19.4621 16.6664 20.2909 16.6664C21.1197 16.6664 21.9145 16.9957 22.5006 17.5817C23.0866 18.1678 23.4159 18.9626 23.4159 19.7914ZM30.7075 33.3331C31.5363 33.3331 32.3312 33.0039 32.9172 32.4178C33.5033 31.8318 33.8325 31.0369 33.8325 30.2081C33.8325 29.3793 33.5033 28.5845 32.9172 27.9984C32.3312 27.4124 31.5363 27.0831 30.7075 27.0831C29.8787 27.0831 29.0839 27.4124 28.4978 27.9984C27.9118 28.5845 27.5825 29.3793 27.5825 30.2081C27.5825 31.0369 27.9118 31.8318 28.4978 32.4178C29.0839 33.0039 29.8787 33.3331 30.7075 33.3331Z" fill="white"/>
</svg>
