<svg width="27" height="27" viewBox="0 0 27 27" fill="none" xmlns="http://www.w3.org/2000/svg">
<path d="M13.209 0C5.91763 0 0 5.91763 0 13.209C0 20.5004 5.91763 26.418 13.209 26.418C20.5004 26.418 26.418 20.5004 26.418 13.209C26.418 5.91763 20.5004 0 13.209 0ZM19.338 8.98212C19.1398 11.0691 18.2813 16.1414 17.8454 18.4794C17.6604 19.4701 17.2906 19.8003 16.9471 19.8399C16.181 19.906 15.5998 19.338 14.8601 18.8492C13.6977 18.0831 13.0373 17.6076 11.9145 16.8679C10.6068 16.0093 11.4522 15.5338 12.2051 14.7677C12.4032 14.5695 15.7848 11.4918 15.8508 11.2144C15.86 11.1724 15.8588 11.1288 15.8472 11.0874C15.8357 11.0459 15.8143 11.0079 15.7848 10.9767C15.7055 10.9106 15.5998 10.937 15.5074 10.9503C15.3885 10.9767 13.5392 12.2051 9.93317 14.6356C9.40481 14.9922 8.92928 15.1771 8.50659 15.1639C8.03107 15.1507 7.13286 14.8997 6.4592 14.6752C5.62703 14.411 4.97979 14.2657 5.03263 13.8034C5.05905 13.5656 5.38927 13.3279 6.01009 13.0769C9.86712 11.3994 12.4297 10.2898 13.7109 9.76145C17.383 8.22921 18.136 7.96502 18.6379 7.96502C18.7436 7.96502 18.9945 7.99144 19.153 8.12353C19.2851 8.22921 19.3248 8.3745 19.338 8.48018C19.3248 8.55943 19.3512 8.79719 19.338 8.98212Z" fill="white"/>
</svg>
