<svg width="27" height="23" viewBox="0 0 27 23" fill="none" xmlns="http://www.w3.org/2000/svg">
<path d="M26.4427 3.63772C26.2924 2.97282 25.998 2.36659 25.589 1.8797C25.1801 1.39282 24.6708 1.04235 24.1124 0.86338C22.0556 0.200684 13.791 0.200684 13.791 0.200684C13.791 0.200684 5.52641 0.200684 3.4697 0.86338C2.91121 1.04235 2.40201 1.39282 1.99304 1.8797C1.58408 2.36659 1.2897 2.97282 1.13938 3.63772C0.755341 6.13492 0.568979 8.66952 0.582741 11.2082C0.568979 13.7468 0.755341 16.2814 1.13938 18.7787C1.2897 19.4435 1.58408 20.0498 1.99304 20.5367C2.40201 21.0236 2.91121 21.374 3.4697 21.553C5.52641 22.2157 13.791 22.2157 13.791 22.2157C13.791 22.2157 22.0556 22.2157 24.1124 21.553C24.6708 21.374 25.1801 21.0236 25.589 20.5367C25.998 20.0498 26.2924 19.4435 26.4427 18.7787C26.8267 16.2814 27.0131 13.7468 26.9993 11.2082C27.0131 8.66952 26.8267 6.13492 26.4427 3.63772ZM11.1494 15.9257V6.49068L18.0082 11.2082L11.1494 15.9257Z" fill="white"/>
</svg>
